<?xml version="1.0" standalone="no"?><!DOCTYPE svg PUBLIC "-//W3C//DTD SVG 1.1//EN" "http://www.w3.org/Graphics/SVG/1.1/DTD/svg11.dtd"><svg t="1641554525679" class="icon" viewBox="0 0 1024 1024" version="1.1" xmlns="http://www.w3.org/2000/svg" p-id="1469" xmlns:xlink="http://www.w3.org/1999/xlink" width="24" height="24"><defs><style type="text/css"></style></defs><path d="M741.08975474 75.15382385a43.68461762 43.68461762 0 0 1 43.68461762 43.68461762v524.21541137h174.78215507v174.78215509a131.05385284 131.05385284 0 0 1-131.05385284 131.05385284H216.87434336a131.05385284 131.05385284 0 0 1-131.05385284-131.05385284v-698.95388184C85.82049052 94.72453254 105.43488383 75.15382385 129.50510814 75.15382385h611.5846466z m137.21338393 646.09549452h-93.48508169v108.73101325a43.68461762 43.68461762 0 0 0 43.68461762 43.68461761c24.11390892 0 49.80046408-19.57070869 49.80046407-43.68461761v-108.77469786 0.04368461zM478.98204905 643.05385284H260.55896098v76.66650392h218.42308807V643.05385284z m131.05385285-174.73847046H260.55896098v82.03971189h349.47694092V468.31538238z m0-174.69478583H260.55896098v82.73866576h349.47694092V293.66428116z" fill="#EE80B7" p-id="1470"></path></svg>