<?xml version="1.0" standalone="no"?><!DOCTYPE svg PUBLIC "-//W3C//DTD SVG 1.1//EN" "http://www.w3.org/Graphics/SVG/1.1/DTD/svg11.dtd"><svg t="1641554522627" class="icon" viewBox="0 0 1177 1024" version="1.1" xmlns="http://www.w3.org/2000/svg" p-id="1322" xmlns:xlink="http://www.w3.org/1999/xlink" width="27.5859375" height="24"><defs><style type="text/css"></style></defs><path d="M266.47254239 341.01356485v65.35132077H162.22492951a26.1312783 26.1312783 0 0 0-26.17752834 26.1312783v335.91411372c0 14.47626568 11.74751273 26.17752835 26.1312783 26.17752835h177.4151921v57.30381205a13.04251412 13.04251412 0 0 0 20.11877178 11.00751192l108.04011699-68.31132397h152.16266476c7.30750791 0 13.13501423 5.82750631 13.13501422 13.04251412v39.22004247a13.04251412 13.04251412 0 0 1-13.13501422 13.08876417H486.71528087l-172.32768659 108.22511719a26.1312783 26.1312783 0 0 1-40.09879343-22.20002404v-86.9963442H162.27117956A91.52884911 91.52884911 0 0 1 70.6960804 768.45652769V432.44991387a91.85259947 91.85259947 0 0 1 91.48259907-91.48259907h104.29386292zM1005.54834268 49.59199929a111.4626207 111.4626207 0 0 1 110.76886994 111.04637025v447.05298408a111.41637065 111.41637065 0 0 1-111.0926203 111.04637024h-76.49758283v122.60888277a26.17752835 26.17752835 0 0 1-40.05254338 22.15377398l-229.81649884-144.76265675H377.51891263A111.0926203 111.0926203 0 0 1 266.79629274 607.73760367V160.54586945A111.13887034 111.13887034 0 0 1 377.56516268 49.4994992h627.98318v0.0925001zM560.76161105 245.59971154a130.70264152 130.70264152 0 1 0 65.95257142 243.50651367l20.44252214 20.48877218 3.4225037 2.49750271c3.65375396 1.850002 7.95500862 1.850002 11.65501262 0l3.46875376-2.49750271 27.65752994-27.75003005a13.08876417 13.08876417 0 0 0 2.45125265-15.03126627l-2.45125265-3.46875376-20.25752193-20.16502183a130.70264152 130.70264152 0 0 0-112.29512159-197.58021394z m309.96783564 0.97125105h-31.40378401a13.04251412 13.04251412 0 0 0-10.26751111 4.94875536l-1.94250211 3.46875375-87.0888443 223.94274249-0.6475007 2.31250251-0.13875015 2.4050026v11.33126227c0 5.96625646 4.02375436 11.10001202 9.57376037 12.53376357l3.46875375 0.4625005h44.95504869c2.91375315 0 5.55000601-1.75750191 6.70625725-4.48625485l0.60125066-2.77500301v-4.94875536l0.23125024-2.4050026 0.69375075-2.35875255 37.46254057-96.15385412a13.04251412 13.04251412 0 0 1 22.29252414-3.51500382l2.0350022 3.56125387 37.37004046 96.10760407 0.69375075 2.35875255 0.1850002 2.35875255v4.94875535a7.40000801 7.40000801 0 0 0 4.53250491 6.75250733l2.82125307 0.60125065h44.95504867a12.95001402 12.95001402 0 0 0 12.53376357-9.57376038l0.50875055-3.46875375v-11.33126227l-0.23125026-2.45125264-0.64750069-2.26625247-86.95009415-224.03524258a13.04251412 13.04251412 0 0 0-12.21001322-8.32500902h-0.0925001z m-309.92158558 64.42631977a65.35132077 65.35132077 0 1 1 0 130.65639147 65.35132077 65.35132077 0 0 1 0-130.65639147z" fill="#5ACD83" p-id="1323"></path></svg>