<?xml version="1.0" standalone="no"?><!DOCTYPE svg PUBLIC "-//W3C//DTD SVG 1.1//EN" "http://www.w3.org/Graphics/SVG/1.1/DTD/svg11.dtd"><svg t="1641554528322" class="icon" viewBox="0 0 1024 1024" version="1.1" xmlns="http://www.w3.org/2000/svg" p-id="1618" xmlns:xlink="http://www.w3.org/1999/xlink" width="24" height="24"><defs><style type="text/css"></style></defs><path d="M865.57112987 469.26825752l46.38219294 23.62056073a21.4732372 21.4732372 0 0 1 0 36.8051297l-398.75802131 239.25481226-398.75802043-239.21186571a21.4732372 21.4732372 0 0 1 0-36.8910228l46.25335327-23.57761418 352.50466716 208.29040402 352.37582836-208.29040402z m-1e-8 193.25913744l46.38219295 23.62056163a21.4732372 21.4732372 0 0 1 0 36.8051288l-398.75802131 239.25481315-398.75802043-239.21186659a21.4732372 21.4732372 0 0 1 0-36.89102191l46.25335327-23.57761508 352.50466716 208.29040404 352.37582836-208.29040404zM535.31273621 67.16041076l376.6405866 225.89845973a21.4732372 21.4732372 0 0 1 0 36.89102192l-398.75802131 239.29775883-398.75802043-239.21186571a21.4732372 21.4732372 0 0 1 0-36.89102281L491.0778668 67.16041076a42.94647529 42.94647529 0 0 1 44.2348694 0z" fill="#72C9F7" p-id="1619"></path></svg>