<?xml version="1.0" standalone="no"?><!DOCTYPE svg PUBLIC "-//W3C//DTD SVG 1.1//EN" "http://www.w3.org/Graphics/SVG/1.1/DTD/svg11.dtd"><svg t="1641554533312" class="icon" viewBox="0 0 1024 1024" version="1.1" xmlns="http://www.w3.org/2000/svg" p-id="1912" xmlns:xlink="http://www.w3.org/1999/xlink" width="24" height="24"><defs><style type="text/css"></style></defs><path d="M293.57691193 239.22562764V108.1717748a43.68461762 43.68461762 0 0 1 43.68461761-43.68461762h349.47694092a43.68461762 43.68461762 0 0 1 43.68461761 43.68461762v131.05385284h174.73847046a43.68461762 43.68461762 0 0 1 43.68461762 43.68461762v611.5846466a43.68461762 43.68461762 0 0 1-43.68461762 43.68461762H118.83844147a43.68461762 43.68461762 0 0 1-43.68461762-43.68461762V282.91024526a43.68461762 43.68461762 0 0 1 43.68461762-43.68461762h174.73847046z m-43.68461762 349.47694092V326.59486287H162.52305909v262.10770569h87.36923522z m87.36923523-262.10770569v262.10770569h131.05385284v-87.36923523h87.36923524v87.36923523h131.05385284V326.59486287H337.26152954z m436.84617615 262.10770569h87.36923523V326.59486287h-87.36923523v262.10770569zM380.94614716 151.85639242v87.36923522h262.10770568V151.85639242H380.94614716z" fill="#B598F1" p-id="1913"></path></svg>