<?xml version="1.0" standalone="no"?><!DOCTYPE svg PUBLIC "-//W3C//DTD SVG 1.1//EN" "http://www.w3.org/Graphics/SVG/1.1/DTD/svg11.dtd"><svg t="1641554530898" class="icon" viewBox="0 0 1024 1024" version="1.1" xmlns="http://www.w3.org/2000/svg" p-id="1765" xmlns:xlink="http://www.w3.org/1999/xlink" width="24" height="24"><defs><style type="text/css"></style></defs><path d="M71.72867839 552.9615007h242.27668248a791.72412465 791.72412465 0 0 0 129.33721383 392.72599294A442.53414411 442.53414411 0 0 1 71.72867839 553.00249465zM71.72867839 464.45467222A442.53414411 442.53414411 0 0 1 443.3425747 71.72867839a791.72412465 791.72412465 0 0 0-129.37820779 392.72599383H71.72867839z m880.14896431 0h-242.2356885A791.72412465 791.72412465 0 0 0 580.26374641 71.72867839a442.53414411 442.53414411 0 0 1 371.61389629 392.72599383z m0 88.46583362a442.53414411 442.53414411 0 0 1-371.6138963 392.72599384 791.72412465 791.72412465 0 0 0 129.3782078-392.72599384h242.27668335z m-549.32445852 0h218.49995275a703.58624448 703.58624448 0 0 1-109.24997594 335.7438297 703.58624448 703.58624448 0 0 1-109.24997681-335.7438297z m0-88.46583362a703.58624448 703.58624448 0 0 1 109.24997681-335.78482454A703.58624448 703.58624448 0 0 1 621.05313693 464.45467222H402.55318418z" fill="#FFB871" p-id="1766"></path></svg>